<?xml version="1.0" encoding="UTF-8" standalone="no"?>
<svg
   xmlns:dc="http://purl.org/dc/elements/1.1/"
   xmlns:cc="http://creativecommons.org/ns#"
   xmlns:rdf="http://www.w3.org/1999/02/22-rdf-syntax-ns#"
   xmlns:svg="http://www.w3.org/2000/svg"
   xmlns="http://www.w3.org/2000/svg"
   viewBox="0 0 294.99033 145.6755"
   height="145.67551"
   width="294.99033"
   xml:space="preserve"
   version="1.1"
   id="svg4115"><metadata
     id="metadata4121"><rdf:RDF><cc:Work
         rdf:about=""><dc:format>image/svg+xml</dc:format><dc:type
           rdf:resource="http://purl.org/dc/dcmitype/StillImage" /><dc:title></dc:title></cc:Work></rdf:RDF></metadata><defs
     id="defs4119"><clipPath
       id="clipPath4129"
       clipPathUnits="userSpaceOnUse"><path
         id="path4131"
         d="m 0,841.89 1190.55,0 L 1190.55,0 0,0 0,841.89 Z" /></clipPath></defs><g
     transform="matrix(1.25,0,0,-1.25,-596.50413,332.05838)"
     id="g4123"><g
       id="g4334"><g
         id="g4133"
         transform="translate(671.9941,262.8359)"><path
           d="m 0,0 c 1.384,0.246 0.422,-1.493 0.907,-2.006 17.508,-0.366 32.69,-4.286 40.161,-13.79 -1.704,0.046 -4.505,-0.274 -6.382,0.53 -1.566,0.683 -2.693,2.909 -4.157,3.979 -6.822,4.991 -17.16,7.44 -29.55,7.568 -0.896,0.056 -0.164,-1.821 -0.823,-2.078 -0.805,-0.669 -0.366,0.843 -0.76,1.14 -1.812,-1.204 -2.775,-3.41 -5.045,-4.078 -2.811,-4.131 -5.1,-8.902 -8.305,-12.582 2.463,-1.315 4.926,-1.525 7.7,-2.775 3.023,-1.373 5.385,-4.377 8.727,-3.077 0.521,0.98 0.952,3.178 0.577,4.45 -0.138,1.003 -2.071,0.477 -2.463,1.274 0.182,2.261 0.191,3.049 -0.889,4.779 2.427,1.337 3.416,5.101 3.681,8.26 4.588,1.437 11.4,-0.358 12.225,-4.863 0.511,-2.752 -0.825,-5.242 -0.742,-8.937 0,-0.98 1.566,-0.045 1.666,-0.554 0.055,-3.401 -4.843,-0.957 -6.41,-2.467 0.22,-2.455 1.183,-4.277 3.214,-5.192 3.946,1.882 7.564,3.652 13.698,2.509 9.533,-1.768 15.522,-10.961 13.91,-20.611 -2.61,-15.87 -24.558,-19.285 -32.416,-6.534 -3.093,-5.416 2.584,-9.656 0.431,-15.448 -2.022,-5.461 -9.66,-8.437 -9.77,-17.379 -0.064,-5.178 2.463,-11.689 8.663,-11.84 11.024,-0.278 16.116,25.126 3.992,27.695 2.134,5.371 10.639,3.131 12.764,-0.833 2.4,3.168 10.385,4.349 12.554,-0.806 -9.788,-1.502 -9.98,-10.814 -12.416,-20.813 -2.326,-9.615 -9.276,-18.176 -21.857,-16.171 -13.104,2.07 -23.917,15.406 -21.894,30.473 0.504,3.737 1.547,6.95 2.738,9.834 1.072,2.628 3.242,4.972 4.075,8.003 0.741,2.694 0.558,4.912 1.437,6.95 1.365,3.187 3.699,5.412 4.001,9.725 0.238,3.393 -2.875,4.605 -2.728,8.351 1.172,1.712 2.482,3.283 4.203,4.367 -5.613,3.279 -11.767,6.09 -14.651,11.694 2.747,7.796 11.318,8.708 13.213,17.525 -0.165,0.833 -0.887,-0.759 -1.053,0.092 0.046,0.704 0.101,1.41 0.166,2.115 2.371,-0.251 4.678,1.319 7.022,-0.357 C -0.009,-1.699 -0.063,-0.77 0,0"
           style="fill:#04e028;fill-opacity:1;fill-rule:evenodd;stroke:none"
           id="path4135" /></g><g
         id="g4137"
         transform="translate(528.1445,150.6133)"><path
           d="m 0,0 c -0.262,-0.881 -0.988,-1.507 -2.026,-1.507 l -5.764,0 c -0.985,0 -1.814,0.626 -2.023,1.559 l -5.192,26.324 c -0.261,1.349 -0.517,2.698 -0.728,4.047 l -1.087,0 c -0.263,-1.349 -0.469,-2.75 -0.784,-4.047 L -22.741,0.052 c -0.154,-0.933 -1.038,-1.559 -2.024,-1.559 l -5.819,0 c -0.982,0 -1.765,0.626 -1.971,1.507 l -6.855,34.32 5.506,0 5.139,-27.311 c 0.261,-1.402 0.416,-2.906 0.624,-4.57 l 1.194,0 c 0.208,1.664 0.469,3.116 0.777,4.57 l 5.142,25.598 c 0.206,0.986 0.932,1.713 1.974,1.713 l 5.554,0 c 0.985,0 1.768,-0.727 1.975,-1.713 L -6.44,6.958 c 0.314,-1.506 0.569,-3.065 0.779,-4.519 l 1.195,0 c 0.259,1.454 0.416,3.065 0.676,4.468 l 5.14,27.413 5.504,0 L 0,0 Z"
           style="fill:#04e028;fill-opacity:1;fill-rule:nonzero;stroke:none"
           id="path4139" /></g><g
         id="g4141"
         transform="translate(553.3018,178.0273)"><path
           d="m 0,0 c -0.259,0.933 -0.622,1.973 -0.885,2.909 l -1.401,0 L -3.119,0 -7.32,-13.604 l 11.524,0 L 0,0 Z m -8.724,-18.12 -3.323,-10.801 -5.297,0 11.217,34.424 c 0.259,0.884 0.985,1.403 1.921,1.403 l 5.297,0 c 0.88,0 1.659,-0.519 1.869,-1.403 l 11.265,-34.424 -5.348,0 -3.323,10.801 -14.278,0 z"
           style="fill:#04e028;fill-opacity:1;fill-rule:nonzero;stroke:none"
           id="path4143" /></g><g
         id="g4145"
         transform="translate(607.8857,150.6133)"><path
           d="m 0,0 c -0.259,-0.881 -0.985,-1.507 -2.025,-1.507 l -5.765,0 c -0.982,0 -1.817,0.626 -2.023,1.559 l -5.193,26.324 c -0.26,1.349 -0.516,2.698 -0.728,4.047 l -1.087,0 c -0.259,-1.349 -0.469,-2.75 -0.78,-4.047 l -5.14,-26.324 c -0.155,-0.933 -1.038,-1.559 -2.025,-1.559 l -5.815,0 c -0.985,0 -1.763,0.626 -1.971,1.507 l -6.857,34.32 5.503,0 5.142,-27.311 c 0.259,-1.402 0.414,-2.906 0.622,-4.57 l 1.196,0 c 0.206,1.664 0.468,3.116 0.776,4.57 l 5.145,25.598 c 0.206,0.986 0.932,1.713 1.97,1.713 l 5.558,0 c 0.985,0 1.765,-0.727 1.971,-1.713 L -6.438,6.958 C -6.13,5.452 -5.864,3.893 -5.66,2.439 l 1.193,0 c 0.259,1.454 0.42,3.065 0.679,4.468 l 5.137,27.413 5.505,0 L 0,0 Z"
           style="fill:#04e028;fill-opacity:1;fill-rule:nonzero;stroke:none"
           id="path4147" /></g><g
         id="g4149"
         transform="translate(633.042,178.0273)"><path
           d="m 0,0 c -0.26,0.933 -0.624,1.973 -0.884,2.909 l -1.401,0 -0.83,-2.909 -4.203,-13.604 11.523,0 L 0,0 Z m -8.723,-18.12 -3.324,-10.801 -5.293,0 11.214,34.424 c 0.258,0.884 0.985,1.403 1.92,1.403 l 5.297,0 c 0.884,0 1.66,-0.519 1.87,-1.403 l 11.268,-34.424 -5.351,0 -3.32,10.801 -14.281,0 z"
           style="fill:#04e028;fill-opacity:1;fill-rule:nonzero;stroke:none"
           id="path4151" /></g><g
         id="g4223"
         transform="translate(519.0313,248.0947)"><path
           d="m 0,0 0,-53.862 -22.141,0 0,53.862 -19.687,0 0,16.529 61.515,0 L 19.687,0 0,0 Z"
           style="fill:#0057ff;fill-opacity:1;fill-rule:nonzero;stroke:none"
           id="path4225" /></g><g
         id="g4227"
         transform="translate(574.4551,235.5537)"><path
           d="m 0,0 c 6.328,0 7.959,1.427 7.959,7.239 0,5.818 -1.631,7.247 -7.959,7.247 l -7.648,0 L -7.648,0 0,0 Z m 9.797,-41.321 -4.589,20.912 c -0.819,3.878 -2.245,4.799 -6.017,4.799 l -6.839,0 0,-25.711 -21.732,0 0,70.391 c 9.388,0.918 15.815,1.023 29.893,1.023 20.713,0 29.687,-5.001 29.687,-21.424 0,-8.47 -3.363,-15.608 -14.285,-16.732 l 0,-0.616 c 3.879,-0.505 9.796,-2.448 11.533,-11.015 l 5.503,-21.627 -23.154,0 z"
           style="fill:#0057ff;fill-opacity:1;fill-rule:nonzero;stroke:none"
           id="path4229" /></g><path
         d="m 614.178,264.624 21.938,0 0,-70.392 -21.938,0 0,70.392 z"
         style="fill:#0057ff;fill-opacity:1;fill-rule:nonzero;stroke:none"
         id="path4231" /></g></g></svg>