<?xml version="1.0" encoding="UTF-8" standalone="no"?>
<svg
   xmlns:dc="http://purl.org/dc/elements/1.1/"
   xmlns:cc="http://creativecommons.org/ns#"
   xmlns:rdf="http://www.w3.org/1999/02/22-rdf-syntax-ns#"
   xmlns:svg="http://www.w3.org/2000/svg"
   xmlns="http://www.w3.org/2000/svg"
   viewBox="0 0 556.30786 82.960369"
   height="82.960373"
   width="556.30786"
   xml:space="preserve"
   version="1.1"
   id="svg4136"><metadata
     id="metadata4142"><rdf:RDF><cc:Work
         rdf:about=""><dc:format>image/svg+xml</dc:format><dc:type
           rdf:resource="http://purl.org/dc/dcmitype/StillImage" /><dc:title></dc:title></cc:Work></rdf:RDF></metadata><defs
     id="defs4140"><clipPath
       id="clipPath4150"
       clipPathUnits="userSpaceOnUse"><path
         id="path4152"
         d="m 0,841.89 1190.55,0 L 1190.55,0 0,0 0,841.89 Z" /></clipPath></defs><g
     transform="translate(-5e-6,-219.37425)"
     id="g4566"><g
       transform="matrix(1.25,0,0,-1.25,284.40913,298.89712)"
       id="g4178"><path
         id="path4180"
         style="fill:#04e028;fill-opacity:1;fill-rule:nonzero;stroke:none"
         d="m 0,0 c -0.477,-1.608 -1.805,-2.75 -3.699,-2.75 l -10.526,0 c -1.8,0 -3.315,1.142 -3.693,2.846 l -9.483,48.068 c -0.473,2.464 -0.944,4.929 -1.329,7.392 l -1.986,0 c -0.479,-2.463 -0.858,-5.024 -1.428,-7.392 L -41.528,0.096 c -0.28,-1.704 -1.895,-2.846 -3.694,-2.846 l -10.626,0 c -1.793,0 -3.221,1.142 -3.6,2.75 l -12.513,62.669 10.05,0 9.384,-49.87 c 0.478,-2.558 0.763,-5.308 1.142,-8.343 l 2.178,0 c 0.379,3.035 0.858,5.687 1.42,8.343 l 9.387,46.743 c 0.378,1.799 1.707,3.127 3.606,3.127 l 10.141,0 c 1.801,0 3.229,-1.328 3.608,-3.127 l 9.285,-46.837 c 0.569,-2.749 1.042,-5.595 1.421,-8.249 l 2.184,0 c 0.471,2.654 0.758,5.596 1.234,8.156 l 9.381,50.057 10.054,0 L 0,0 Z" /></g><g
       transform="matrix(1.25,0,0,-1.25,341.82726,236.32512)"
       id="g4182"><path
         id="path4184"
         style="fill:#04e028;fill-opacity:1;fill-rule:nonzero;stroke:none"
         d="m 0,0 c -0.473,1.707 -1.137,3.605 -1.613,5.313 l -2.56,0 L -5.692,0 l -7.672,-24.839 21.041,0 L 0,0 Z m -15.928,-33.085 -6.068,-19.722 -9.671,0 20.482,62.858 c 0.472,1.611 1.799,2.561 3.506,2.561 l 9.671,0 c 1.608,0 3.033,-0.95 3.412,-2.561 l 20.571,-62.858 -9.765,0 -6.068,19.722 -26.07,0 z" /></g><g
       transform="matrix(1.25,0,0,-1.25,466.41476,298.89712)"
       id="g4186"><path
         id="path4188"
         style="fill:#04e028;fill-opacity:1;fill-rule:nonzero;stroke:none"
         d="m 0,0 c -0.471,-1.608 -1.799,-2.75 -3.697,-2.75 l -10.528,0 c -1.795,0 -3.314,1.142 -3.693,2.846 L -27.4,48.164 c -0.473,2.464 -0.945,4.929 -1.33,7.392 l -1.986,0 c -0.472,-2.463 -0.856,-5.024 -1.421,-7.392 L -41.528,0.096 c -0.279,-1.704 -1.892,-2.846 -3.694,-2.846 l -10.619,0 c -1.8,0 -3.221,1.142 -3.598,2.75 l -12.52,62.669 10.049,0 9.389,-49.87 c 0.473,-2.558 0.757,-5.308 1.136,-8.343 l 2.179,0 c 0.379,3.035 0.857,5.687 1.423,8.343 l 9.388,46.743 c 0.379,1.799 1.708,3.127 3.601,3.127 l 10.148,0 c 1.799,0 3.222,-1.328 3.601,-3.127 l 9.291,-46.837 c 0.565,-2.749 1.042,-5.595 1.421,-8.249 l 2.179,0 c 0.472,2.654 0.763,5.596 1.236,8.156 l 9.383,50.057 10.049,0 L 0,0 Z" /></g><g
       transform="matrix(1.25,0,0,-1.25,523.83288,236.32512)"
       id="g4190"><path
         id="path4192"
         style="fill:#04e028;fill-opacity:1;fill-rule:nonzero;stroke:none"
         d="m 0,0 c -0.473,1.707 -1.137,3.605 -1.613,5.313 l -2.559,0 L -5.687,0 l -7.676,-24.839 21.041,0 L 0,0 Z m -15.927,-33.085 -6.069,-19.722 -9.665,0 20.476,62.858 c 0.472,1.611 1.799,2.561 3.506,2.561 l 9.671,0 c 1.613,0 3.036,-0.95 3.413,-2.561 l 20.575,-62.858 -9.767,0 -6.066,19.722 -26.074,0 z" /></g><g
       transform="matrix(1.25,0,0,-1.25,48.591255,239.762)"
       id="g4198"><path
         id="path4200"
         style="fill:#0057ff;fill-opacity:1;fill-rule:nonzero;stroke:none"
         d="m 0,0 0,-50.058 -20.576,0 0,50.058 -18.297,0 0,15.361 57.171,0 L 18.298,0 0,0 Z" /></g><g
       transform="matrix(1.25,0,0,-1.25,112.97663,254.333)"
       id="g4202"><path
         id="path4204"
         style="fill:#0057ff;fill-opacity:1;fill-rule:nonzero;stroke:none"
         d="m 0,0 c 5.883,0 7.397,1.325 7.397,6.728 0,5.406 -1.514,6.734 -7.397,6.734 l -7.106,0 L -7.106,0 0,0 Z m 9.104,-38.401 -4.263,19.436 c -0.763,3.603 -2.086,4.46 -5.592,4.46 l -6.355,0 0,-23.896 -20.198,0 0,65.419 c 8.727,0.851 14.697,0.949 27.782,0.949 19.247,0 27.588,-4.648 27.588,-19.91 0,-7.87 -3.127,-14.506 -13.276,-15.552 l 0,-0.567 c 3.606,-0.472 9.106,-2.278 10.719,-10.241 l 5.115,-20.098 -21.52,0 z" /></g><path
       id="path4206"
       style="fill:#0057ff;fill-opacity:1;fill-rule:nonzero;stroke:none"
       d="m 159.11988,220.56 25.48625,0 0,81.77375 -25.48625,0 0,-81.77375 z" /></g></svg>