<?xml version="1.0" encoding="UTF-8" standalone="no"?>
<svg
   xmlns:dc="http://purl.org/dc/elements/1.1/"
   xmlns:cc="http://creativecommons.org/ns#"
   xmlns:rdf="http://www.w3.org/1999/02/22-rdf-syntax-ns#"
   xmlns:svg="http://www.w3.org/2000/svg"
   xmlns="http://www.w3.org/2000/svg"
   xmlns:sodipodi="http://sodipodi.sourceforge.net/DTD/sodipodi-0.dtd"
   xmlns:inkscape="http://www.inkscape.org/namespaces/inkscape"
   id="svg4136"
   version="1.1"
   xml:space="preserve"
   width="556.3075"
   height="198.22263"
   viewBox="0 0 556.30749 198.22262"
   inkscape:version="0.91 r13725"
   sodipodi:docname="triwawa-logo-2.svg"><sodipodi:namedview
     pagecolor="#ffffff"
     bordercolor="#666666"
     borderopacity="1"
     objecttolerance="10"
     gridtolerance="10"
     guidetolerance="10"
     inkscape:pageopacity="0"
     inkscape:pageshadow="2"
     inkscape:window-width="2560"
     inkscape:window-height="1391"
     id="namedview4685"
     showgrid="false"
     fit-margin-top="0"
     fit-margin-left="0"
     fit-margin-right="0"
     fit-margin-bottom="0"
     inkscape:zoom="0.4925325"
     inkscape:cx="278.15324"
     inkscape:cy="47.055312"
     inkscape:window-x="0"
     inkscape:window-y="23"
     inkscape:window-maximized="1"
     inkscape:current-layer="svg4136" /><metadata
     id="metadata4142"><rdf:RDF><cc:Work
         rdf:about=""><dc:format>image/svg+xml</dc:format><dc:type
           rdf:resource="http://purl.org/dc/dcmitype/StillImage" /><dc:title></dc:title></cc:Work></rdf:RDF></metadata><defs
     id="defs4140"><clipPath
       clipPathUnits="userSpaceOnUse"
       id="clipPath4150"><path
         d="m 0,841.89 1190.55,0 L 1190.55,0 0,0 0,841.89 Z"
         id="path4152"
         inkscape:connector-curvature="0" /></clipPath></defs><g
     id="g4758"
     transform="translate(-10e-4,-2.3150307e-7)"><g
       id="g4174"
       transform="matrix(1.25,0,0,-1.25,556.3085,92.108875)"><path
         inkscape:connector-curvature="0"
         d="m 0,0 c -1.107,1.092 -4.656,-0.249 -4.247,2.363 -9.17,0.278 -19.551,1.829 -24.56,-3.778 l 0,-16.528 c -0.973,0.28 -3.097,-0.584 -3.3,0.473 -0.177,3.265 0.253,8.107 0,9.916 -1.137,0.288 -3.426,-0.592 -3.779,0.472 l 0,7.557 c -0.193,0.91 -1.837,0.371 -1.417,1.888 -0.101,6.868 1.941,13.625 0,18.42 -0.616,-2.635 -1.808,0.99 -3.306,0.47 -0.712,-0.706 -0.145,-2.692 -1.89,-2.36 -7.332,2.587 -0.855,13.22 -3.778,18.418 0.471,-1.421 -1.051,-0.837 -1.895,-0.946 0.143,3.327 -0.54,7.47 0.948,9.448 -4.754,0.248 -2.743,6.544 -4.249,8.97 1.556,0.757 -0.063,1.765 0.948,2.834 -1.717,0.939 -0.391,3.833 -0.471,6.613 -0.097,3.098 -1.207,6.989 -0.477,9.444 -1.641,0.16 -0.832,-1.185 -0.946,-1.888 -0.571,-3.473 0.636,-8.734 0,-12.751 -0.144,-0.923 -0.862,-1.445 -0.943,-2.363 -0.305,-3.484 1.36,-9.521 -3.779,-10.859 0.134,-2.635 2.184,-7.551 0,-9.448 -1.285,-0.341 -0.951,0.942 -1.888,0.946 -0.224,-4.431 0.133,-9.958 0,-15.588 -1.176,0.053 -1.462,0.887 -2.358,0 0.664,-2.811 0.029,-1.479 -0.95,-3.303 -0.079,0.55 -0.745,0.513 -1.417,0.473 -0.27,0.831 0.574,2.774 -0.471,2.83 0.137,-1.56 -2.238,-0.127 -2.835,-1.886 -0.042,0.742 0.067,1.638 -0.944,1.416 -0.314,-12.911 0.633,-27.074 -0.469,-39.196 -3.515,-0.269 -8.124,0.565 -10.862,-0.474 0.722,-6.642 -0.381,-11.947 0.471,-18.889 -2.103,-0.396 -1.339,-2.918 -3.309,-2.361 -0.097,3.748 1.339,6.184 0.948,8.972 -0.976,0.281 -3.105,-0.583 -3.306,0.472 1.015,15.559 0.212,35.626 0.468,53.367 -3.358,-0.054 -6.503,0.098 -8.965,0.943 l 0,4.251 c -0.615,0.649 -2.056,0.467 -3.315,0.472 l 0,-3.776 c -2.468,-1.245 -6.394,0.822 -7.553,-0.947 0.883,-0.689 3.133,-0.019 3.784,-0.943 -0.484,-2.198 -5.439,0.082 -6.617,-1.421 1.499,-0.653 4.168,-0.653 5.666,0 -0.256,-0.683 0.554,-2.437 -0.47,-2.358 -1.456,0.872 -5.201,0.674 -6.136,-0.472 1.169,-0.072 0.137,-1.601 0,-1.89 -0.64,-9.263 -1.179,-46.108 -0.949,-48.17 -2.692,0.803 -4.586,-0.057 -7.555,0.472 1.491,2.077 -3.147,1.379 -4.255,2.358 0.269,14.797 -0.556,32.849 0.478,45.34 -0.782,1.11 -1.976,1.804 -3.302,2.362 l 0,2.358 c -2.285,0.087 -2.686,2.045 -4.732,2.364 -1.934,-0.109 -1.961,-2.125 -4.719,-1.415 -0.258,-0.843 -0.242,-1.961 -0.943,-2.363 -5,1.242 -12.884,1.384 -17.617,1.414 0.328,-3.365 2.864,-49.38 0.617,-50.06 0.024,0.605 -0.189,-1.701 -2.834,-0.943 -1.327,0.005 1.118,1.287 -0.949,0.943 -8.21,0.071 -9.198,0.357 -17.471,0 -0.09,6.38 0.068,16.202 0,24.088 -2.634,-1.287 -2.429,1.685 -2.838,1.889 -0.274,0.138 -1.829,0.185 -2.829,0.472 -3.707,1.062 -6.189,0.429 -9.92,0.473 -0.691,-1.796 2.113,-0.093 1.423,-1.887 -0.373,-0.108 -0.551,-0.398 -0.477,-0.947 -5.42,0.282 -6.762,-0.632 -11.804,-0.471 0.144,0.927 -0.643,0.934 -0.948,1.418 0.081,0.718 1.745,3.236 0,2.829 -1.91,-0.508 0.15,-2.248 -0.47,-4.247 -1.477,-0.097 -3.467,0.319 -4.249,-0.472 0.166,-7.685 0.974,-25.016 0.803,-26.449 -4.968,-1.813 -5.145,1.464 -13.084,0.474 1.837,2.629 -1.412,1.715 -1.89,3.304 0.058,1.043 2.005,0.203 2.83,0.475 l 0,12.749 c -3.554,1.465 -7.113,0.873 -10.387,1.889 0.879,2.139 -1.698,0.821 -1.887,1.888 -0.517,1.801 1.252,2.948 -0.47,3.308 -0.31,-1.415 -1.011,0.451 -1.895,0 -1.315,-0.728 -0.07,-1.705 -1.889,-2.361 -0.08,0.698 -1.138,0.433 -1.883,0.472 -0.667,1.352 1.465,2.577 -0.478,2.361 l 0,-1.89 c -4.708,-1.818 -6.931,2.021 -9.914,-0.471 0.13,1.234 -0.173,2.033 -1.42,1.889 0.08,-1.183 -1.054,-1.148 -1.413,-1.889 -0.043,0.741 0.058,1.636 -0.945,1.416 -0.92,-2.234 -1.774,-2.406 -1.89,-4.723 l -3.777,0 c -0.764,-2.149 1.286,-9.292 -0.948,-11.334 -1.262,0.31 -1.79,1.355 -2.831,1.889 -1.497,-1.808 -3.521,-3.096 -5.196,-4.722 3.63,0.058 3.703,-4.508 4.25,-6.141 l -6.611,0 c -0.589,-2.006 1.569,-1.262 1.89,-2.361 -3.835,-1.983 -8.274,0.268 -12.749,-1.415 1.088,10.712 0.158,23.449 0.467,34.946 -0.556,0.704 -1.181,1.335 -1.887,1.888 l 0,6.14 c -0.286,0.818 -2.24,-0.035 -2.36,0.946 l 0,7.081 c -3.978,1.74 -9.887,2.546 -13.7,1.891 l 0,8.504 c -5.086,-0.631 -9.886,1.367 -14.164,0 l 0,1.414 c -1.233,-0.729 -4.195,-1.745 -5.196,0 0.38,2.861 0.328,5.286 0,7.085 0.74,0.044 1.636,-0.065 1.412,0.944 -0.701,0.08 -1.738,-0.169 -1.88,0.472 0.882,3.268 0.338,8.769 -0.95,11.336 0.018,-3.617 -1.703,-8.399 -0.471,-11.808 l -1.889,0 c 2.327,-2.226 1.125,-4.459 1.42,-7.083 -1.65,-1.661 -4.412,-2.204 -8.034,-1.888 -0.057,-14.659 0.236,-35.124 -0.471,-43.451 l -2.358,0 c 0.419,-1.378 0.601,-1.628 -0.476,-2.361 0.596,-0.194 0.968,-0.608 0.945,-1.417 -0.826,-4.18 -0.654,-6.525 -1.89,-10.389 -2.118,-1.027 -3.674,-2.622 -3.774,-5.667 -1.365,-2.682 -6.221,-1.199 -8.029,-1.89 -0.688,1.786 1.297,0.905 0.948,2.361 -0.849,-0.06 -1.108,0.469 -0.948,1.418 -3.354,0.214 -3.84,0.599 -6.614,0 -0.103,0.891 0.535,1.039 0.472,1.891 -2.431,-0.385 -3.711,0.381 -4.722,1.413 -0.073,-0.553 0.081,-1.339 -0.475,-1.413 -3.433,0.099 -3.175,-0.578 -6.609,-0.474 -0.636,1.308 -0.751,4.924 -0.477,5.665 -0.835,0.281 -1.956,-1.381 -2.353,0 -0.716,6.014 2.635,17.134 -5.196,14.641 l 0,2.363 c -1.339,-0.392 -1.221,0.665 -2.36,0.47 -1.079,-0.341 0.43,-3.267 -1.422,-2.833 -1.862,0.027 -0.462,3.314 -3.302,2.363 -0.625,-1.266 -0.886,-2.894 -3.307,-2.363 -0.357,-2.139 1.298,0.722 0.946,-1.418 0.075,-1.336 -2.916,0.394 -2.834,-0.943 2.399,-0.573 -1.22,-2.292 0,-4.721 1.888,0.156 2.806,-0.659 2.834,-2.363 -3.146,0.127 -19.785,-4.089 -24.084,-2.361 0.281,17.189 -0.592,35.534 0.468,51.948 -1.526,0.521 -3.416,0.679 -4.252,1.89 -2.342,-3.205 -6.224,1.146 -10.386,1.417 0.841,0.041 0.596,5.087 -2.366,4.251 2.266,-2.42 -0.949,-2.893 0.476,-4.723 -2.36,-0.669 -2.899,-2.843 -5.194,-1.416 -0.697,-1.798 2.11,-0.092 1.417,-1.888 -3.315,0.187 -5.105,-0.413 -7.557,0 0.409,1.51 -0.73,1.476 -1.417,1.888 0.131,-1.238 -0.644,-2.032 -1.89,-1.888 0.097,-26.586 0.173,-46.583 0.063,-70.745 l -15.824,-12.497 0,-26.683 445.046,0 0,42.989 -0.115,0 C -0.109,-27.523 0,-8.145 0,0"
         style="fill:#04e028;fill-opacity:1;fill-rule:evenodd;stroke:none"
         id="path4176" /></g><path
       inkscape:connector-curvature="0"
       d="m 231.45988,169.7475 -142.96625,0 0,-1.68125 142.96625,0 0,1.68125 z"
       style="fill:#44619d;fill-opacity:1;fill-rule:evenodd;stroke:none"
       id="path4194" /><path
       inkscape:connector-curvature="0"
       d="m 467.81488,169.7475 -142.9675,0 0,-1.68125 142.9675,0 0,1.68125 z"
       style="fill:#44619d;fill-opacity:1;fill-rule:evenodd;stroke:none"
       id="path4196" /><g
       id="g4208"
       transform="matrix(1.25,0,0,-1.25,524.049,142.61662)"><path
         inkscape:connector-curvature="0"
         d="M 0,0 C 2.292,0.606 3.872,-0.626 3.916,-2.671 4.015,-7.028 -2.604,-6.509 -2.138,-2.314 -2.046,-1.496 -1.579,-0.42 0,0"
         style="fill:#0057ff;fill-opacity:1;fill-rule:evenodd;stroke:none"
         id="path4210" /></g><g
       id="g4212"
       transform="matrix(1.25,0,0,-1.25,527.83313,155.08487)"><path
         inkscape:connector-curvature="0"
         d="M 0,0 C 1.078,0.636 1.582,1.29 2.493,2.137 3.252,2.848 4.107,4.143 5.165,4.099 5.753,4.07 6.705,3.439 6.767,2.673 6.866,1.496 4.75,-0.073 3.919,-0.889 2.897,-1.892 1.598,-3.703 0.356,-3.739 c -2,-0.06 -2.647,2.28 -4.097,3.207 -1.548,-1.597 -2.943,-3.351 -4.451,-4.987 0.713,-1.707 4.26,-3.08 4.628,-5.165 0.177,-0.993 -0.455,-2.633 -0.709,-3.741 -0.268,-1.155 -0.654,-2.316 -0.892,-3.382 -0.444,-2.012 -0.547,-5.759 -2.673,-5.877 -4.359,-0.241 -0.275,8.18 -0.178,10.507 -1.365,1.722 -3.079,3.096 -4.63,4.63 -0.732,-0.956 -1.444,-1.354 -2.313,-2.313 -0.983,-1.082 -1.449,-2.57 -3.564,-2.851 -1.47,-0.193 -7.543,-0.441 -9.081,0 -1.366,0.394 -2.069,2.074 -1.244,3.205 1.303,1.798 5.869,0.005 8.368,0.714 0.946,0.265 1.894,1.771 2.847,2.845 2.645,2.981 5.176,5.944 7.664,8.908 -3.047,0.483 -3.719,-1.153 -5.347,-3.03 -1.013,-1.164 -1.831,-2.845 -3.026,-2.848 -0.667,-0.002 -1.496,0.603 -1.607,1.246 -0.209,1.269 1.568,2.463 2.676,3.742 1.438,1.659 2.244,2.775 3.385,3.916 l 8.723,0 C -3.216,3.554 -1.657,1.728 0,0"
         style="fill:#0057ff;fill-opacity:1;fill-rule:evenodd;stroke:none"
         id="path4214" /></g><g
       id="g4216"
       transform="matrix(1.25,0,0,-1.25,281.02288,143.95212)"><path
         inkscape:connector-curvature="0"
         d="M 0,0 C 2.236,0.292 3.677,-1.045 3.383,-3.385 2.95,-6.843 -3.084,-6.874 -2.673,-2.494 -2.545,-1.107 -1.716,-0.224 0,0"
         style="fill:#0057ff;fill-opacity:1;fill-rule:evenodd;stroke:none"
         id="path4218" /></g><g
       id="g4220"
       transform="matrix(1.25,0,0,-1.25,282.58051,157.31025)"><path
         inkscape:connector-curvature="0"
         d="m 0,0 c 2.222,-0.325 6.159,0.827 6.412,-1.068 0.195,-1.488 -1.629,-1.399 -3.385,-1.423 -1.522,-0.023 -3.546,-0.241 -4.451,0.175 -1.391,0.644 -1.36,2.595 -2.495,3.565 -1.386,-1.168 -2.759,-2.345 -3.919,-3.74 1.376,-1.298 3.737,-1.608 4.813,-3.207 -0.112,-3.393 0.221,-7.231 -0.178,-10.329 -0.721,-0.858 -2.308,-0.858 -3.032,0 -0.391,2.158 -0.071,5.029 -0.179,7.481 -1.25,2.064 -8.055,2.692 -7.832,6.23 0.102,1.673 4.17,4.883 5.699,6.41 0.936,0.938 2.126,2.799 4.27,1.962 C -3.251,5.657 -2.445,3.958 -1.96,3.208 -1.277,2.15 -0.868,1.097 0,0"
         style="fill:#0057ff;fill-opacity:1;fill-rule:evenodd;stroke:none"
         id="path4222" /></g><g
       id="g4224"
       transform="matrix(1.25,0,0,-1.25,255.19825,170.66712)"><path
         inkscape:connector-curvature="0"
         d="m 0,0 c -0.438,-0.641 -1.306,-3.067 -1.069,-4.807 0.545,-3.922 4.582,-5.923 7.839,-5.345 2.874,0.516 5.252,3.44 5.164,6.593 C 11.83,0.13 8.489,3.221 4.276,2.494 2.318,2.155 0.862,1.251 0,0 m 3.741,3.919 c 6.205,1.172 10.712,-4.028 9.617,-9.438 -0.872,-4.301 -6.709,-7.942 -11.754,-5.344 -2.291,1.18 -4.167,3.822 -4.273,6.767 -0.151,4.163 2.463,7.272 6.41,8.015"
         style="fill:#0057ff;fill-opacity:1;fill-rule:evenodd;stroke:none"
         id="path4226" /></g><g
       id="g4228"
       transform="matrix(1.25,0,0,-1.25,283.69013,178.23312)"><path
         inkscape:connector-curvature="0"
         d="M 0,0 C 0.992,-2.926 4.281,-4.323 6.412,-4.276 14.838,-4.083 14.584,9.12 5.882,8.546 1.756,8.278 -1.527,4.521 0,0 M 5.165,9.972 C 9.858,10.561 12.474,7.965 13.536,5.696 15.775,0.904 13.071,-3.46 9.798,-4.988 3.919,-7.731 -4.067,-2.486 -1.42,4.984 -0.606,7.296 1.619,9.529 5.165,9.972"
         style="fill:#0057ff;fill-opacity:1;fill-rule:evenodd;stroke:none"
         id="path4230" /></g><g
       id="g4232"
       transform="matrix(1.25,0,0,-1.25,46.947505,159.759)"><path
         inkscape:connector-curvature="0"
         d="m 0,0 c 1.897,-4.633 4.784,-8.273 6.769,-12.822 -2.36,-0.954 -3.977,1.057 -6.769,0.714 -0.841,-0.105 -1.656,-0.759 -2.673,-0.892 -2.23,-0.292 -4.386,1.024 -6.056,0.892 -2.019,-0.162 -4.46,-1.84 -6.944,-0.178 3.943,2.408 8.182,4.519 12.289,6.765 -0.49,1.526 -1.304,2.395 -1.958,3.564 -0.729,1.298 -2.349,3.343 -1.247,4.984 0.814,1.213 4.526,1.346 6.946,1.784 1.251,0.226 2.536,0.507 3.74,0.71 2.475,0.417 6.488,1.434 6.052,-2.137 C 9.767,0.227 2.897,0.967 0,0"
         style="fill:#0057ff;fill-opacity:1;fill-rule:evenodd;stroke:none"
         id="path4234" /></g><g
       id="g4236"
       transform="matrix(1.25,0,0,-1.25,57.189255,161.76212)"><path
         inkscape:connector-curvature="0"
         d="M 0,0 C 6.74,1.229 6.699,-9.662 -0.359,-8.192 -4.604,-7.306 -4.209,-0.766 0,0"
         style="fill:#0057ff;fill-opacity:1;fill-rule:evenodd;stroke:none"
         id="path4238" /></g><g
       id="g4240"
       transform="matrix(1.25,0,0,-1.25,64.75888,179.56912)"><path
         inkscape:connector-curvature="0"
         d="m 0,0 0,-3.208 c -1.41,-0.182 -2.714,0.814 -4.1,0.892 -1.891,0.109 -3.157,-1.125 -5.517,-0.892 -1.312,0.134 -2.367,0.845 -3.564,0.892 -1.654,0.063 -3.045,-1.079 -5.341,-0.892 -1.391,0.116 -2.459,0.851 -3.562,0.892 -1.378,0.052 -2.365,-0.714 -3.919,-0.892 -1.964,-0.218 -3.838,0.986 -5.695,0.892 -1.384,-0.068 -2.72,-1.042 -4.099,-0.892 l 0,3.208 c 1.751,0.034 2.759,1.069 4.452,1.069 1.496,0 2.804,-1.03 4.274,-1.069 1.522,-0.044 3.02,1.053 4.631,1.069 1.477,0.013 2.939,-1.053 4.45,-1.069 1.535,-0.018 2.971,1.053 4.451,1.069 1.487,0.013 2.938,-1.053 4.452,-1.069 1.491,-0.018 2.938,1.053 4.454,1.069 C -2.79,1.084 -1.764,-0.044 0,0"
         style="fill:#0057ff;fill-opacity:1;fill-rule:evenodd;stroke:none"
         id="path4242" /></g></g></svg>