<?xml version="1.0" encoding="UTF-8" standalone="no"?>
<svg
   xmlns:dc="http://purl.org/dc/elements/1.1/"
   xmlns:cc="http://creativecommons.org/ns#"
   xmlns:rdf="http://www.w3.org/1999/02/22-rdf-syntax-ns#"
   xmlns:svg="http://www.w3.org/2000/svg"
   xmlns="http://www.w3.org/2000/svg"
   xmlns:sodipodi="http://sodipodi.sourceforge.net/DTD/sodipodi-0.dtd"
   xmlns:inkscape="http://www.inkscape.org/namespaces/inkscape"
   viewBox="0 0 396.99756 54.376722"
   height="54.376724"
   width="396.99756"
   xml:space="preserve"
   version="1.1"
   id="svg3574"
   inkscape:version="0.91 r13725"
   sodipodi:docname="triwawa-syrenka.svg"><sodipodi:namedview
     pagecolor="#ffffff"
     bordercolor="#666666"
     borderopacity="1"
     objecttolerance="10"
     gridtolerance="10"
     guidetolerance="10"
     inkscape:pageopacity="0"
     inkscape:pageshadow="2"
     inkscape:window-width="2560"
     inkscape:window-height="1391"
     id="namedview24"
     showgrid="false"
     inkscape:zoom="0.22425732"
     inkscape:cx="160.9985"
     inkscape:cy="442.06175"
     inkscape:window-x="0"
     inkscape:window-y="23"
     inkscape:window-maximized="1"
     inkscape:current-layer="svg3574"
     fit-margin-top="0"
     fit-margin-left="0"
     fit-margin-right="0"
     fit-margin-bottom="0" /><metadata
     id="metadata3580"><rdf:RDF><cc:Work
         rdf:about=""><dc:format>image/svg+xml</dc:format><dc:type
           rdf:resource="http://purl.org/dc/dcmitype/StillImage" /><dc:title></dc:title></cc:Work></rdf:RDF></metadata><defs
     id="defs3578"><clipPath
       id="clipPath3588"
       clipPathUnits="userSpaceOnUse"><path
         id="path3590"
         d="m 0,841.89 560,0 L 560,0 0,0 0,841.89 Z"
         inkscape:connector-curvature="0" /></clipPath></defs><g
     transform="matrix(1.25,0,0,-1.25,-189.0015,138.4962)"
     id="g3582"><g
       id="g4889"><g
         id="g3690"
         transform="translate(298.7607,69.1475)"><path
           d="m 0,0 c -0.307,-1.039 -1.175,-1.787 -2.4,-1.787 l -6.827,0 c -1.157,0 -2.151,0.748 -2.393,1.851 l -6.152,31.163 c -0.303,1.611 -0.606,3.197 -0.862,4.807 l -1.276,0 c -0.314,-1.61 -0.566,-3.268 -0.933,-4.807 L -26.924,0.064 c -0.187,-1.103 -1.232,-1.851 -2.403,-1.851 l -6.881,0 c -1.175,0 -2.098,0.748 -2.339,1.787 l -8.117,40.651 6.52,0 6.078,-32.354 c 0.313,-1.658 0.5,-3.439 0.742,-5.416 l 1.416,0 c 0.242,1.977 0.558,3.697 0.929,5.416 l 6.071,30.314 c 0.249,1.168 1.11,2.04 2.336,2.04 l 6.591,0 c 1.171,0 2.09,-0.872 2.335,-2.04 L -7.619,8.236 C -7.259,6.455 -6.948,4.62 -6.7,2.881 l 1.409,0 c 0.313,1.739 0.501,3.636 0.801,5.301 l 6.084,32.469 6.526,0 L 0,0 Z"
           style="fill:#04e028;fill-opacity:1;fill-rule:nonzero;stroke:none"
           id="path3692"
           inkscape:connector-curvature="0" /></g><g
         id="g3694"
         transform="translate(328.5615,101.6064)"><path
           d="m 0,0 c -0.31,1.104 -0.753,2.35 -1.052,3.453 l -1.658,0 L -3.701,0 -8.679,-16.109 4.98,-16.109 0,0 Z m -10.333,-21.452 -3.936,-12.794 -6.278,0 13.285,40.773 c 0.31,1.045 1.164,1.665 2.271,1.665 l 6.278,0 c 1.045,0 1.961,-0.62 2.206,-1.665 l 13.339,-40.773 -6.318,0 -3.94,12.794 -16.907,0 z"
           style="fill:#04e028;fill-opacity:1;fill-rule:nonzero;stroke:none"
           id="path3696"
           inkscape:connector-curvature="0" /></g><g
         id="g3698"
         transform="translate(393.2012,69.1475)"><path
           d="m 0,0 c -0.31,-1.039 -1.178,-1.787 -2.403,-1.787 l -6.826,0 c -1.162,0 -2.145,0.748 -2.394,1.851 l -6.152,31.163 c -0.303,1.611 -0.617,3.197 -0.862,4.807 l -1.294,0 c -0.312,-1.61 -0.554,-3.268 -0.915,-4.807 L -26.934,0.064 c -0.183,-1.103 -1.222,-1.851 -2.4,-1.851 l -6.881,0 c -1.174,0 -2.087,0.748 -2.328,1.787 l -8.131,40.651 6.514,0 6.087,-32.354 c 0.316,-1.658 0.501,-3.439 0.746,-5.416 l 1.413,0 c 0.245,1.977 0.555,3.697 0.926,5.416 l 6.08,30.314 c 0.242,1.168 1.103,2.04 2.332,2.04 l 6.589,0 c 1.153,0 2.09,-0.872 2.339,-2.04 L -7.626,8.236 C -7.265,6.455 -6.952,4.62 -6.71,2.881 l 1.42,0 c 0.31,1.739 0.504,3.636 0.796,5.301 l 6.081,32.469 6.537,0 L 0,0 Z"
           style="fill:#04e028;fill-opacity:1;fill-rule:nonzero;stroke:none"
           id="path3700"
           inkscape:connector-curvature="0" /></g><g
         id="g3702"
         transform="translate(422.9854,101.6064)"><path
           d="M 0,0 C -0.304,1.104 -0.735,2.35 -1.049,3.453 L -2.7,3.453 -3.681,0 l -4.987,-16.109 13.652,0 L 0,0 Z m -10.326,-21.452 -3.933,-12.794 -6.281,0 13.298,40.773 c 0.286,1.045 1.154,1.665 2.254,1.665 l 6.285,0 c 1.049,0 1.961,-0.62 2.206,-1.665 l 13.347,-40.773 -6.333,0 -3.933,12.794 -16.91,0 z"
           style="fill:#04e028;fill-opacity:1;fill-rule:nonzero;stroke:none"
           id="path3704"
           inkscape:connector-curvature="0" /></g><g
         id="g3706"
         transform="translate(176.4092,99.8301)"><path
           d="m 0,0 0,-32.47 -13.34,0 0,32.47 -11.868,0 0,9.969 37.083,0 L 11.875,0 0,0 Z"
           style="fill:#0057ff;fill-opacity:1;fill-rule:nonzero;stroke:none"
           id="path3708"
           inkscape:connector-curvature="0" /></g><g
         id="g3710"
         transform="translate(209.8154,92.2715)"><path
           d="M 0,0 C 3.819,0 4.8,0.861 4.8,4.354 4.8,7.868 3.819,8.726 0,8.726 l -4.597,0 L -4.597,0 0,0 Z m 5.907,-24.911 -2.758,12.603 c -0.507,2.336 -1.365,2.905 -3.629,2.905 l -4.117,0 0,-15.508 -13.107,0 0,42.438 c 5.658,0.548 9.526,0.607 18.014,0.607 12.488,0 17.887,-3.014 17.887,-12.911 0,-5.101 -2.018,-9.411 -8.606,-10.088 l 0,-0.371 c 2.335,-0.292 5.917,-1.468 6.955,-6.639 l 3.316,-13.036 -13.955,0 z"
           style="fill:#0057ff;fill-opacity:1;fill-rule:nonzero;stroke:none"
           id="path3712"
           inkscape:connector-curvature="0" /></g><path
         d="m 233.757,109.799 13.229,0 0,-42.438 -13.229,0 0,42.438 z"
         style="fill:#0057ff;fill-opacity:1;fill-rule:nonzero;stroke:none"
         id="path3714"
         inkscape:connector-curvature="0" /><g
         id="g3716"
         transform="translate(452.6563,110.7891)"><path
           d="m 0,0 c 0.531,0.089 0.16,-0.603 0.357,-0.804 6.865,-0.135 12.802,-1.675 15.741,-5.392 -0.664,0.007 -1.771,-0.11 -2.513,0.197 -0.603,0.272 -1.056,1.15 -1.621,1.573 -2.683,1.947 -6.735,2.905 -11.579,2.962 -0.354,0.01 -0.069,-0.728 -0.334,-0.824 -0.313,-0.266 -0.136,0.33 -0.296,0.453 -0.712,-0.48 -1.083,-1.345 -1.968,-1.597 -1.109,-1.62 -2.005,-3.486 -3.265,-4.936 0.977,-0.514 1.934,-0.582 3.027,-1.09 1.181,-0.527 2.104,-1.709 3.411,-1.205 0.208,0.392 0.375,1.239 0.235,1.746 -0.057,0.393 -0.81,0.188 -0.964,0.501 0.062,0.882 0.076,1.191 -0.35,1.869 0.95,0.521 1.338,2.005 1.433,3.237 1.805,0.566 4.481,-0.132 4.797,-1.906 0.202,-1.065 -0.316,-2.053 -0.296,-3.496 0,-0.392 0.623,-0.017 0.654,-0.211 0.024,-1.342 -1.89,-0.382 -2.513,-0.974 0.089,-0.959 0.463,-1.668 1.26,-2.04 1.546,0.733 2.969,1.434 5.373,0.978 3.738,-0.685 6.087,-4.286 5.45,-8.065 -1.021,-6.225 -9.628,-7.555 -12.709,-2.561 -1.205,-2.125 1.018,-3.786 0.174,-6.057 -0.787,-2.148 -3.783,-3.306 -3.824,-6.812 -0.034,-2.026 0.961,-4.586 3.405,-4.638 4.313,-0.112 6.309,9.843 1.546,10.858 0.848,2.1 4.181,1.225 5.004,-0.337 0.95,1.246 4.079,1.702 4.933,-0.314 -3.846,-0.593 -3.915,-4.231 -4.888,-8.157 -0.903,-3.766 -3.623,-7.123 -8.556,-6.336 -5.142,0.82 -9.373,6.036 -8.583,11.947 0.204,1.471 0.623,2.723 1.075,3.85 0.419,1.025 1.267,1.951 1.601,3.14 0.293,1.047 0.215,1.93 0.561,2.719 0.532,1.243 1.457,2.116 1.57,3.814 0.089,1.335 -1.127,1.802 -1.069,3.268 0.452,0.682 0.963,1.297 1.641,1.723 -2.19,1.277 -4.597,2.383 -5.736,4.582 1.082,3.055 4.432,3.405 5.181,6.867 -0.068,0.331 -0.354,-0.305 -0.416,0.028 0.018,0.273 0.045,0.562 0.062,0.837 0.932,-0.105 1.842,0.5 2.751,-0.149 C -0.003,-0.671 -0.034,-0.31 0,0"
           style="fill:#0057ff;fill-opacity:1;fill-rule:evenodd;stroke:none"
           id="path3718"
           inkscape:connector-curvature="0" /></g></g></g></svg>